# AST/ASF file generated using VICON BodyLanguage
# -----------------------------------------------
:version 1.10
:name VICON
:units
  mass 1.0
  length 0.45
  angle deg
:documentation
   .ast/.asf automatically generated from VICON data using
   VICON BodyBuilder and BodyLanguage model FoxedUp or BRILLIANT.MOD
:root
   order TX TY TZ RX RY RZ
   axis XYZ
   position 0 0 0  
   orientation 0 0 0 
:bonedata
  begin
     id 1 
     name lhipjoint
     direction 0.547975 -0.797114 0.253638 
     length 2.36201 
     axis 0 0 0  XYZ
  end
  begin
     id 2 
     name lfemur
     direction 0.34202 -0.939693 0  
     length 7.69075  
     axis 0 0 20  XYZ
    dof rx ry rz
    limits (-160.0 20.0)
           (-70.0 70.0)
           (-60.0 70.0)
  end
  begin
     id 3 
     name ltibia
     direction 0.34202 -0.939693 0   
     length 7.91399   
     axis 0 0 20   XYZ
    dof rx
    limits (-10.0 170.0)
  end
  begin
     id 4 
     name lfoot
     direction 0.0705293 -0.193778 0.978507   
     length 2.13618   
     axis -90 7.62852e-016 20   XYZ
    dof rx rz
    limits (-45.0 90.0)
           (-70.0 20.0)
  end
  begin
     id 5 
     name ltoes
     direction 1.53592e-011 -4.21925e-011 1   
     length 1.07518   
     axis -90 7.62852e-016 20   XYZ
    dof rx
    limits (-90.0 20.0)
  end
  begin
     id 6 
     name rhipjoint
     direction -0.57 -0.782963 0.249136   
     length 2.4047  
     axis 0 0 0  XYZ 
  end
  begin
     id 7 
     name rfemur
     direction -0.34202 -0.939693 0   
     length 7.51486   
     axis 0 0 -20   XYZ
    dof rx ry rz
    limits (-160.0 20.0)
           (-70.0 70.0)
           (-70.0 60.0)
  end
  begin
     id 8 
     name rtibia
     direction -0.34202 -0.939693 0   
     length 8.08317   
     axis 0 0 -20   XYZ
    dof rx
    limits (-10.0 170.0)
 end
 begin
     id 9 
     name rfoot
     direction -0.104954 -0.281256 0.953876   
     length 2.30343  
     axis -90 -7.62852e-016 -20   XYZ
    dof rx rz
    limits (-45.0 90.0)
           (-20.0 70.0)
  end
  begin
     id 10 
     name rtoes
     direction -1.53556e-011 -4.21922e-011 1   
     length 1.14803   
     axis -90 -7.62852e-016 -20   XYZ
    dof rx
    limits (-90.0 20.0)
  end
  begin
     id 11 
     name lowerback
     direction -0.0152855 0.99353 -0.11254   
     length 2.05311   
     axis 0 0 0   XYZ
    dof rx ry rz
    limits (-20.0 45.0)
           (-30.0 30.0)
           (-30.0 30.0)
  end
  begin
     id 12 
     name upperback
     direction -0.00157509 0.999443 -0.033332   
     length 2.06353   
     axis 0 0 0   XYZ
    dof rx ry rz
    limits (-20.0 45.0)
           (-30.0 30.0)
           (-30.0 30.0)
  end
  begin
     id 13 
     name thorax
     direction 0.00577788 0.999804 0.0189484   
     length 2.08472   
     axis 0 0 0   XYZ
    dof rx ry rz
    limits (-20.0 45.0)
           (-30.0 30.0)
           (-30.0 30.0)
  end
  begin
     id 14 
     name lowerneck
     direction -1.09301e-005 0.994719 0.10264   
     length 1.76249   
     axis 0 0 0   XYZ
    dof rx ry rz
    limits (-20.0 45.0)
           (-30.0 30.0)
           (-30.0 30.0)
  end
  begin
     id 15 
     name upperneck
     direction 0.0495018 0.988526 -0.142706   
     length 1.77897   
     axis 0 0 0   XYZ
    dof rx ry rz
    limits (-20.0 45.0)
           (-30.0 30.0)
           (-30.0 30.0)
  end
  begin
     id 16
     name head
     direction 0.0142736 0.998114 -0.0597101  
     length 1.78934  
     axis 0 0 0   XYZ
    dof rx ry rz
    limits (-20.0 45.0)
           (-30.0 30.0)
           (-30.0 30.0)
  end
  begin
     id 17 
     name lclavicle
     direction 0.918111 0.396107 -0.0130883  
     length 3.37276  
     axis 0 0 0   XYZ
    dof ry rz
    limits (-20.0 10.0)
           (0.0 20.0)
  end
  begin
     id 18 
     name lhumerus
     direction 1 -4.48975e-011 -3.26108e-027   
     length 5.34298   
     axis 180 -30 -90   XYZ
    dof rx ry rz
    limits (-60.0 90.0)
           (-90.0 90.0)
           (-90.0 90.0)
  end
  begin
     id 19
     name lradius
     direction 1 -4.48964e-011 -8.84413e-028   
     length 3.67262   
     axis 180 -30 -90   XYZ
    dof rx
    limits (-10.0 170.0)
  end
  begin
     id 20
     name lwrist
     direction 1 -4.48991e-011 -1.24264e-027   
     length 1.83631   
     axis -2.17013e-015 90 90   XYZ
    dof ry
    limits (-180.0 0.0)
 end
  begin
     id 21 
     name lhand
     direction 1 -4.48855e-011 -2.48528e-027   
     length 0.599298   
     axis 1.58582e-015 90 90   XYZ
    dof rx rz
    limits (-90.0 90.0)
           (-45.0 45.0)
  end
  begin
     id 22 
     name lfingers
     direction 1 -4.48811e-011 -4.97056e-027   
     length 0.48317   
     axis 3.17164e-015 90 90   XYZ
    dof rx
    limits (0.0 90.0)
  end
  begin
     id 23
     name lthumb
     direction 0.707107 -6.34882e-011 0.707107   
     length 0.693738   
     axis -90 45 2.85299e-015   XYZ
    dof rx rz
    limits (-45.0 45.0)
           (-45.0 45.0)
  end
  begin
     id 24 
     name rclavicle
     direction -0.920511 0.384752 -0.0680135   
     length 3.43787  
     axis 0 0 0   XYZ 
    dof ry rz
    limits (-10.0 20.0)
           (-20.0 0.0)
  end
  begin
     id 25 
     name rhumerus
     direction -0.999976 -0.00330524 0.00603274  
     length 5.5498   
     axis 180 30 90   XYZ
    dof rx ry rz
    limits (-90.0 60.0)
           (-90.0 90.0)
           (-90.0 90.0)
  end
  begin
     id 26 
     name rradius
     direction -1 -4.48967e-011 8.62438e-027   
     length 3.69401   
     axis 180 30 90   XYZ
    dof rx
    limits (-10.0 170.0)
  end
  begin
     id 27 
     name rwrist
     direction -1 -4.4897e-011 9.54866e-027   
     length 1.84701   
     axis -7.69462e-015 -90 -90   XYZ
    dof ry
    limits (-180.0 0.0)
  end
  begin
     id 28
     name rhand
     direction -1 -4.48982e-011 1.90973e-026   
     length 0.638113   
     axis -1.21857e-014 -90 -90   XYZ
    dof rx rz
    limits (-90.0 90.0)
           (-45.0 45.0)
  end
  begin
     id 29
     name rfingers
     direction -1 -4.48936e-011 3.81946e-026   
     length 0.514463   
     axis -2.43714e-014 -90 -90   XYZ
    dof rx
    limits (0.0 90.0)
  end
  begin
     id 30
     name rthumb
     direction -0.707107 -6.34942e-011 0.707107   
     length 0.738669   
     axis -90 -45 -2.85299e-015   XYZ
    dof rx rz
    limits (-45.0 45.0)
           (-45.0 45.0)
  end
:hierarchy
  begin
    root lhipjoint rhipjoint lowerback
    lhipjoint lfemur
    lfemur ltibia
    ltibia lfoot
    lfoot ltoes
    rhipjoint rfemur
    rfemur rtibia
    rtibia rfoot
    rfoot rtoes
    lowerback upperback
    upperback thorax
    thorax lowerneck lclavicle rclavicle
    lowerneck upperneck
    upperneck head
    lclavicle lhumerus
    lhumerus lradius
    lradius lwrist
    lwrist lhand lthumb
    lhand lfingers
    rclavicle rhumerus
    rhumerus rradius
    rradius rwrist
    rwrist rhand rthumb
    rhand rfingers
  end

#!OML:ASF F:\twosubjects\two\Thursday\Session 1\Rory.ASF
:FULLY-SPECIFIED
:DEGREES
254
root 12.5146 10.6056 16.2049 -171.919 -7.08057 -182.749
lowerback 29.3297 0.757393 -8.41285
upperback 12.4328 -5.13984 -4.28889
thorax -1.90129 -4.131 1.63767
lowerneck 3.31599 -16.2258 -15.5137
upperneck -11.5508 -21.3839 22.7797
head 0.397851 -10.7381 8.73425
rclavicle 1.59028e-014 3.65764e-014
rhumerus -10.4144 -49.0073 -35.4488
rradius 113.295
rwrist -16.8565
rhand -34.3186 24.1772
rfingers 7.12502
rthumb -7.48713 -5.6703
lclavicle 1.59028e-014 3.65764e-014
lhumerus -5.53234 -58.281 35.376
lradius 109.53
lwrist -17.3155
lhand -33.6548 28.6534
lfingers 7.12502
lthumb -6.84633 58.5227
rfemur -14.8005 -10.5142 -6.87154
rtibia 115.884
rfoot -26.1365 -7.82223
rtoes -30.9709
lfemur -90.5575 14.9686 -28.6859
ltibia 122.966
lfoot -33.7838 -1.9787
ltoes -15.9287
255
root 12.5194 10.616 16.1811 -171.837 -6.91874 -182.385
lowerback 29.0492 1.00357 -7.20803
upperback 12.8792 -4.58652 -4.66652
thorax -1.43977 -3.87549 0.349722
lowerneck 1.62798 -17.009 -14.0376
upperneck -11.057 -22.2315 22.7309
head 0.787096 -11.0701 8.2297
rclavicle 5.08889e-014 6.67916e-014
rhumerus -12.1507 -50.8005 -34.6519
rradius 113.378
rwrist -17.0357
rhand -34.3534 24.4584
rfingers 7.12502
rthumb -7.52072 -5.38791
lclavicle 5.08889e-014 6.67916e-014
lhumerus -0.994908 -58.4181 31.0623
lradius 109.241
lwrist -16.6981
lhand -33.433 28.535
lfingers 7.12502
lthumb -6.63223 58.4111
rfemur -14.9863 -10.1104 -6.14863
rtibia 115.836
rfoot -25.8906 -7.74243
rtoes -31.0767
lfemur -90.9841 15.5575 -28.1828
ltibia 123.257
lfoot -33.3378 -3.83841
ltoes -13.7104
256
root 12.5275 10.6311 16.1596 -171.879 -6.82911 -182.551
lowerback 28.9954 0.845403 -8.60326
upperback 12.1714 -4.93389 -4.15007
thorax -2.02829 -3.98868 1.83335
lowerneck 3.57679 -16.2099 -15.2424
upperneck -11.2454 -21.4407 22.286
head 0.353778 -10.7888 8.5629
rclavicle 3.33958e-014 3.65764e-014
rhumerus -11.1073 -48.9582 -34.8378
rradius 113.197
rwrist -17.2368
rhand -33.9815 24.4393
rfingers 7.12502
rthumb -7.16169 -5.41955
lclavicle 3.33958e-014 3.65764e-014
lhumerus -5.71902 -58.3308 35.4053
lradius 109.298
lwrist -16.7938
lhand -32.7889 28.2822
lfingers 7.12502
lthumb -6.01041 58.177
rfemur -14.8612 -9.98229 -6.33392
rtibia 115.774
rfoot -25.7317 -7.51835
rtoes -31.0131
lfemur -91.1824 15.8816 -28.1956
ltibia 123.496
lfoot -33.0042 -5.19768
ltoes -12.0342
257
root 12.5427 10.6268 16.1495 -171.973 -6.80682 -182.619
lowerback 29.0124 0.979431 -7.9671
upperback 12.6744 -4.7643 -4.50317
thorax -1.57017 -3.9697 1.01249
lowerneck 1.77516 -16.7553 -14.1978
upperneck -10.838 -21.9434 22.0984
head 0.705787 -10.9256 8.11554
rclavicle 7.95139e-015 1.59028e-015
rhumerus -11.5698 -50.2018 -35.0968
rradius 113.254
rwrist -17.0313
rhand -33.8157 24.3953
rfingers 7.12502
rthumb -7.00162 -5.46893
lclavicle 7.95139e-015 1.59028e-015
lhumerus -2.82015 -58.0965 32.5154
lradius 109.189
lwrist -16.0646
lhand -33.1942 28.6661
lfingers 7.12502
lthumb -6.40173 58.5493
rfemur -14.7667 -9.84397 -6.32896
rtibia 115.773
rfoot -25.5519 -7.33827
rtoes -30.8498
lfemur -90.8996 16.0636 -28.1848
ltibia 123.354
lfoot -33.1142 -4.41807
ltoes -14.957
258
root 12.5528 10.6205 16.1306 -172.17 -6.74469 -182.397
lowerback 29.1048 0.87935 -7.58702
upperback 12.9 -4.87726 -4.56834
thorax -1.38831 -4.0509 0.75164
lowerneck 0.345907 -16.8577 -14.2948
upperneck -9.97419 -22.0348 22.0951
head 1.2089 -10.8637 7.93118
rclavicle 7.95139e-014 7.63333e-014
rhumerus -10.6743 -50.3256 -36.1296
rradius 113.096
rwrist -17.0806
rhand -34.2142 24.2403
rfingers 7.12502
rthumb -7.38636 -5.61074
lclavicle 7.95139e-014 7.63333e-014
lhumerus -2.43346 -57.8154 32.0848
lradius 108.868
lwrist -15.4725
lhand -34.4082 28.9118
lfingers 7.12502
lthumb -7.57357 58.7562
rfemur -14.5316 -9.32776 -5.75339
rtibia 115.623
rfoot -25.5821 -7.55568
rtoes -31.5376
lfemur -90.5595 16.4723 -27.7653
ltibia 123.494
lfoot -33.3068 -4.18236
ltoes -16.9315
259
root 12.5568 10.6291 16.1006 -172.292 -6.55527 -182.74
lowerback 28.993 1.03346 -8.08928
upperback 12.8697 -4.81648 -4.63116
thorax -1.34118 -4.04568 0.939426
lowerneck 0.369109 -16.7516 -14.2395
upperneck -9.69436 -21.9345 22.0079
head 1.25036 -10.8231 7.90261
rclavicle 1.11319e-014 -7.95139e-015
rhumerus -10.6983 -50.2017 -36.1335
rradius 112.93
rwrist -17.0384
rhand -34.1266 23.7935
rfingers 7.12502
rthumb -7.30173 -6.0605
lclavicle 1.11319e-014 -7.95139e-015
lhumerus -2.29815 -57.9797 32.1012
lradius 108.408
lwrist -15.5551
lhand -34.1166 28.823
lfingers 7.12502
lthumb -7.29216 58.6774
rfemur -14.184 -8.8493 -6.06836
rtibia 115.391
rfoot -25.888 -7.54556
rtoes -32.414
lfemur -90.2106 16.7627 -27.8096
ltibia 123.719
lfoot -33.1122 -5.65225
ltoes -14.8618
260
root 12.563 10.6411 16.0776 -172.127 -6.39028 -183.367
lowerback 28.6998 1.2367 -8.79479
upperback 12.8343 -4.7143 -4.72185
thorax -1.20542 -4.02703 1.18607
lowerneck 0.296726 -16.7829 -14.1287
upperneck -9.69199 -21.9628 21.8947
head 1.2391 -10.8324 7.8466
rclavicle -1.19271e-013 -1.27222e-013
rhumerus -10.7961 -50.2847 -36.0283
rradius 112.781
rwrist -16.826
rhand -33.5843 23.7877
rfingers 7.12502
rthumb -6.77826 -6.08382
lclavicle -1.19271e-013 -1.27222e-013
lhumerus -1.61013 -58.0463 31.5173
lradius 108.141
lwrist -15.3695
lhand -33.3021 28.7964
lfingers 7.12502
lthumb -6.5059 58.6765
rfemur -14.2258 -8.70993 -6.88401
rtibia 115.271
rfoot -26.0249 -6.97937
rtoes -32.2238
lfemur -90.0696 16.8314 -28.348
ltibia 123.761
lfoot -33.0231 -6.06852
ltoes -15.1728
261
root 12.5709 10.6471 16.0617 -172.006 -6.38785 -183.565
lowerback 28.3995 1.09669 -9.86922
upperback 12.0408 -4.88747 -4.39727
thorax -1.82099 -4.00804 2.21952
lowerneck 3.06717 -15.9939 -15.1808
upperneck -10.2652 -21.214 21.8608
head 0.611566 -10.6489 8.36282
rclavicle 9.06458e-014 5.88403e-014
rhumerus -10.6386 -48.2506 -35.7402
rradius 112.586
rwrist -17.0957
rhand -34.0892 24.099
rfingers 7.12502
rthumb -7.26564 -5.75625
lclavicle 9.06458e-014 5.88403e-014
lhumerus -5.30172 -58.74 34.7773
lradius 108.124
lwrist -15.3088
lhand -33.4696 28.5091
lfingers 7.12502
lthumb -6.6676 58.3842
rfemur -14.2961 -8.64243 -7.05379
rtibia 115.167
rfoot -25.9774 -6.61845
rtoes -32.0988
lfemur -90.0039 16.888 -28.4964
ltibia 123.705
lfoot -33.1402 -5.88324
ltoes -16.4141
262
root 12.5806 10.6533 16.0422 -172.132 -6.40812 -183.215
lowerback 28.2892 1.14584 -8.6464
upperback 12.7231 -4.6694 -4.71352
thorax -1.15623 -3.97052 1.0846
lowerneck 0.546242 -16.6585 -14.2178
upperneck -9.55006 -21.8485 21.8933
head 1.23057 -10.7973 7.88967
rclavicle -1.11319e-014 -1.27222e-014
rhumerus -10.5599 -49.4719 -36.4999
rradius 112.637
rwrist -16.7416
rhand -35.2821 24.0091
rfingers 7.12502
rthumb -8.41705 -5.80321
lclavicle -1.11319e-014 -1.27222e-014
lhumerus -1.79699 -58.1988 31.4003
lradius 107.745
lwrist -15.0454
lhand -33.5134 28.3904
lfingers 7.12502
lthumb -6.70987 58.2641
rfemur -14.1173 -8.35313 -6.31659
rtibia 114.948
rfoot -25.702 -6.78856
rtoes -32.2398
lfemur -89.966 17.3708 -27.8804
ltibia 123.843
lfoot -32.8295 -7.67314
ltoes -13.4081
